<svg xmlns="http://www.w3.org/2000/svg" width="59" height="60" viewBox="0 0 59 60"><g><g><path fill="#fff" d="M45.751 24.721h3.086l-1.401 4.808h-1.685zm-18.807 0v4.808h-2.379l-1.634-4.808zm-.01-10.727v4.808h-6.015l-1.632-4.808zm12.817 10.727v4.808h-6.807v-4.808zm6-5.928v-4.799h6.211l-1.401 4.8zm12.591-9.538a3.011 3.011 0 0 0-2.396-1.179h-38.67L14.801.792H3.06c-1.657 0-3 1.325-3 2.96 0 1.633 1.343 2.958 3 2.958h7.424l13.5 39.733h25.159c1.657 0 3-1.324 3-2.959 0-1.634-1.343-2.959-3-2.959H28.301l-1.726-5.078h23.12a2.995 2.995 0 0 0 2.884-2.142l6.25-21.452c.26-.894.08-1.855-.487-2.598z"/></g><g><path fill="#fff" d="M27.411 59.874c3.193 0 5.781-2.553 5.781-5.702 0-3.15-2.588-5.702-5.781-5.702-3.193 0-5.781 2.553-5.781 5.702s2.588 5.702 5.781 5.702z"/></g><g><path fill="#fff" d="M44.841 59.874c3.193 0 5.781-2.553 5.781-5.702 0-3.15-2.588-5.702-5.781-5.702-3.193 0-5.781 2.553-5.781 5.702s2.588 5.702 5.781 5.702z"/></g></g></svg>