<svg xmlns="http://www.w3.org/2000/svg" width="75" height="61" viewBox="0 0 75 61"><g><g><path fill="#fff" d="M35 3.938H5.031c-.55 0-1 .45-1 1v.031c0 .55.45 1 1 1H35c.55 0 1-.45 1-1v-.031c0-.55-.45-1-1-1zM33.993 0s7.34.84 11.943 4.109v12.01s-4.203 3.469-10.008 4.07l-8.609.131-.331 2.737h3.002l-1.134 7.873h-3.002l-1.067 7.805s-.534 1.736 2.068 2.002c2.601.267 9.073 1.935 9.073 3.402v.734H5.039s0-1.734.867-2.201c.867-.467 3.002-1.668 3.002-1.668s1.601-1.401 1.868-3.604c.266-2.201 2.735-15.211 2.735-15.211s.334-1.334-1.601-1.334H2.903S0 20.789 0 17.853V2.041S.167 0 2.103 0zm40.934 10.5c0 1.372-.467 2.484-1.042 2.484H60.39c-.62 2.287-2.072 3.891-3.763 3.891h-7.545V4.125h7.545c1.692 0 3.142 1.604 3.763 3.891h13.494c.575 0 1.042 1.112 1.042 2.484zM5.039 47.942h30.889v11.074c0 1.8-2.001 1.984-2.001 1.984H6.907c-1.868 0-1.868-2.051-1.868-2.051z"/></g></g></svg>