<svg xmlns="http://www.w3.org/2000/svg" width="78" height="62" viewBox="0 0 78 62"><g><g><path fill="#fff" d="M55.792 53.932a5.06 5.06 0 0 1 5.064-5.057 5.06 5.06 0 0 1 5.062 5.059 5.06 5.06 0 0 1-5.064 5.057 5.06 5.06 0 0 1-5.062-5.059zm-3 .005a8.061 8.061 0 0 0 4.034 6.982 8.071 8.071 0 0 0 8.067 0 8.061 8.061 0 0 0-4.034-15.044 8.065 8.065 0 0 0-8.067 8.062zm-41.834-2.894A7.307 7.307 0 1 1 21.292 40.71a7.307 7.307 0 0 1-10.334 10.334zm5.167-21.293C7.22 29.75 0 36.969 0 45.876c0 8.905 7.22 16.125 16.125 16.125 8.905 0 16.125-7.22 16.125-16.125.001-8.907-7.219-16.126-16.125-16.126z"/></g><g><path fill="#fff" d="M63.004 36v-7h4.016v7zm-2.984 0h-4.016v-7h4.016zm-7 0h-4.016v-7h4.016zM33.087 19.823H26.13V6.167h6.958zm-10 0H16.13V6.167h6.958zm54.815 29.904s-2.023-15.102-2.46-18.414c-.548-4.141-3.626-4.688-3.626-4.688l-5.812-.679V14h-3v5.833h-4v5.295L47.192 23.75S37.442 3.688 36.63 1.875C35.818.062 33.504 0 33.504 0S11.13 2.375 8.754 3 5.316 6.167 5.316 6.167c-2.308 6.37-2.31 17.296-2.266 20.255a23.328 23.328 0 0 1 13.08-3.986c12.943 0 23.437 10.493 23.437 23.439 0 2.438-.373 4.789-1.064 7h10.164c.39-6.402 5.69-11.479 12.191-11.479S72.66 46.473 73.05 52.875h1.955c3.641 0 2.898-3.148 2.898-3.148z"/></g></g></svg>